<svg width="20" height="20" viewBox="0 0 20 20" fill="none" xmlns="http://www.w3.org/2000/svg">
<path d="M17.5521 8.70523L13.5929 7.92782L14.8935 4.10117C15.1242 3.43437 14.961 2.76129 14.3758 2.42319C13.7906 2.08586 13.1198 2.29845 12.6641 2.81385L10.0008 5.85133L7.3375 2.81385C6.86996 2.29139 6.20708 2.09057 5.62579 2.42319C5.03979 2.75815 4.87583 3.44143 5.10804 4.10117L6.40712 7.92625H6.40634L2.44711 8.70445C1.75442 8.83624 1.25157 9.33124 1.25 10.0067C1.24843 10.6821 1.76775 11.1583 2.44083 11.2963L6.40634 12.0738L5.10725 15.9004C4.87662 16.5672 5.03979 17.2403 5.625 17.5784C6.21022 17.9157 6.88094 17.7031 7.33672 17.1877L10 14.1503L12.6633 17.1877C13.1308 17.7102 13.7937 17.911 14.375 17.5784C14.961 17.2434 15.125 16.5601 14.8928 15.9004L13.5937 12.0753L17.5592 11.2971C18.233 11.1591 18.7516 10.6829 18.75 10.0075C18.7484 9.33203 18.2456 8.83703 17.5529 8.70523H17.5521Z" fill="white"/>
</svg>
