<svg width="240" height="240" viewBox="0 0 240 240" fill="none" xmlns="http://www.w3.org/2000/svg">
<path d="M107.803 18.2867L38.0087 58.5865C30.4651 62.9439 25.8054 71.0039 25.8054 79.7187L25.8054 160.318C25.8054 169.033 30.4525 177.093 38.0087 181.451L107.803 221.725C115.347 226.083 124.653 226.083 132.197 221.725L201.991 181.425C209.535 177.068 214.195 169.008 214.195 160.293L214.195 79.6936C214.195 70.9787 209.548 62.9187 201.991 58.5613L132.197 18.2615C124.653 13.9041 115.347 13.9041 107.803 18.2615L107.803 18.2867ZM162.044 120.006C162.044 143.229 143.217 162.056 119.994 162.056C96.7709 162.056 77.9434 143.229 77.9434 120.006C77.9434 96.7832 96.7709 77.9556 119.994 77.9556C143.217 77.9556 162.044 96.7832 162.044 120.006Z" fill="#651FFF"/>
</svg>
