<svg width="129" height="34" viewBox="0 0 129 34" fill="none" xmlns="http://www.w3.org/2000/svg">
<path d="M126.995 13.1031V26.2206H123.179V13.1031H126.995ZM122.914 9.65811C122.914 10.3294 123.134 10.8594 123.576 11.2481C124.035 11.6368 124.539 11.8311 125.087 11.8311C125.634 11.8311 126.129 11.6368 126.571 11.2481C127.03 10.8594 127.26 10.3294 127.26 9.65811C127.26 8.98677 127.03 8.45677 126.571 8.06811C126.129 7.67944 125.634 7.48511 125.087 7.48511C124.539 7.48511 124.035 7.67944 123.576 8.06811C123.134 8.45677 122.914 8.98677 122.914 9.65811Z" fill="black"/>
<path d="M111.277 13.1561H114.828L115.12 14.5871C115.95 13.4211 117.116 12.8381 118.618 12.8381C119.855 12.8381 120.923 13.2356 121.824 14.0306L120.234 17.0516C119.616 16.61 118.918 16.3891 118.141 16.3891C117.275 16.3891 116.551 16.663 115.968 17.2106C115.385 17.7406 115.093 18.4738 115.093 19.4101V26.2206H111.277V13.1561Z" fill="black"/>
<path d="M101.624 12.8381C103.814 12.8381 105.466 13.2533 106.579 14.0836C107.71 14.8963 108.275 16.2036 108.275 18.0056V26.2206H104.486C104.486 25.514 104.53 24.719 104.618 23.8356H104.539C104.185 24.6306 103.611 25.2666 102.816 25.7436C102.021 26.2206 101.111 26.4591 100.087 26.4591C98.7439 26.4591 97.6309 26.0793 96.7476 25.3196C95.8643 24.5423 95.4226 23.5088 95.4226 22.2191C95.4226 20.8588 95.9084 19.7988 96.8801 19.0391C97.8694 18.2795 99.1414 17.8996 100.696 17.8996C102.056 17.8996 103.196 18.1293 104.115 18.5886V18.3236C104.115 16.769 103.108 15.9916 101.094 15.9916C99.8923 15.9916 98.5673 16.239 97.1186 16.7336L96.3501 13.8451C98.0461 13.1738 99.8039 12.8381 101.624 12.8381ZM101.412 23.2526C102.136 23.2526 102.754 23.0583 103.267 22.6696C103.779 22.281 104.088 21.7421 104.194 21.0531C103.381 20.6291 102.507 20.4171 101.571 20.4171C100.952 20.4171 100.458 20.5408 100.087 20.7881C99.7333 21.0355 99.5566 21.3976 99.5566 21.8746C99.5566 22.3163 99.7333 22.6608 100.087 22.9081C100.44 23.1378 100.882 23.2526 101.412 23.2526Z" fill="black"/>
<path d="M81.8853 7.69702H85.7013V18.2705L89.5703 13.156H94.0753V13.3945L89.2788 19.304L94.8173 25.929V26.2205H90.2328L85.7013 20.47V26.2205H81.8853V7.69702Z" fill="black"/>
<path d="M79.7025 19.2246C79.7025 19.79 79.6495 20.3376 79.5435 20.8676H70.3745C70.4805 21.6273 70.8515 22.228 71.4875 22.6696C72.1235 23.0936 72.839 23.3056 73.634 23.3056C74.9767 23.3056 76.1603 22.8993 77.185 22.0866L78.9605 24.5511C77.6002 25.8585 75.754 26.5121 73.422 26.5121C71.302 26.5121 69.5618 25.9291 68.2015 24.7631C66.8588 23.5795 66.1875 21.8923 66.1875 19.7016C66.1875 17.5463 66.8765 15.868 68.2545 14.6666C69.6502 13.4476 71.3197 12.8381 73.263 12.8381C75.171 12.8381 76.7168 13.4035 77.9005 14.5341C79.1018 15.6471 79.7025 17.2106 79.7025 19.2246ZM75.0385 16.6276C74.5438 16.186 73.9167 15.9651 73.157 15.9651C72.3973 15.9651 71.7613 16.186 71.249 16.6276C70.7367 17.0516 70.4452 17.6788 70.3745 18.5091H75.754C75.7717 17.6788 75.5332 17.0516 75.0385 16.6276Z" fill="black"/>
<path d="M55.8065 26.2205H52.0435V19.198C52.0435 17.29 51.2926 16.336 49.791 16.336C49.0666 16.336 48.4925 16.6187 48.0685 17.184C47.6445 17.7494 47.4325 18.4295 47.4325 19.2245V26.2205H43.6165V13.1295H46.9555L47.2205 14.6135C47.8918 13.4299 49.0401 12.838 50.6655 12.838C52.4851 12.838 53.7571 13.6507 54.4815 15.276C55.0645 14.3927 55.6916 13.7655 56.363 13.3945C57.0343 13.0059 57.8558 12.8115 58.8275 12.8115C60.3821 12.8115 61.6365 13.2885 62.5905 14.2425C63.5621 15.1965 64.048 16.8042 64.048 19.0655V26.2205H60.2055V19.145C60.2055 17.3254 59.543 16.4155 58.218 16.4155C57.4936 16.4155 56.9106 16.6894 56.469 17.237C56.0273 17.767 55.8065 18.4207 55.8065 19.198V26.2205Z" fill="black"/>
<path d="M29.8386 14.7989L23.1079 13.4773L25.319 6.97201C25.7111 5.83845 25.4337 4.69422 24.4388 4.11944C23.444 3.54599 22.3037 3.9074 21.5289 4.78357L17.0013 9.94728L12.4738 4.78357C11.6789 3.89539 10.552 3.55399 9.56384 4.11944C8.56764 4.68889 8.28891 5.85045 8.68366 6.97201L10.8921 13.4747H10.8908L4.16008 14.7976C2.98251 15.0216 2.12767 15.8631 2.12501 17.0114C2.12234 18.1596 3.00518 18.9691 4.14941 19.2038L10.8908 20.5254L8.68233 27.0307C8.29025 28.1643 8.56764 29.3085 9.5625 29.8833C10.5574 30.4567 11.6976 30.0953 12.4724 29.2192L17 24.0555L21.5276 29.2192C22.3224 30.1073 23.4493 30.4487 24.4375 29.8833C25.4337 29.3138 25.7124 28.1523 25.3177 27.0307L23.1092 20.5281L29.8506 19.2051C30.9962 18.9704 31.8777 18.1609 31.875 17.0127C31.8723 15.8645 31.0175 15.023 29.8399 14.7989H29.8386Z" fill="#651FFF"/>
</svg>
